<?xml version="1.0" encoding="UTF-8"?>
<svg id="Livello_1" data-name="Livello 1" xmlns="http://www.w3.org/2000/svg" version="1.1" viewBox="0 0 446 568">
  <defs>
    <style>
      .cls-1 {
        stroke-linecap: round;
        stroke-linejoin: round;
        stroke-width: 8px;
      }

      .cls-1, .cls-2 {
        fill: none;
        stroke: #000;
      }

      .cls-3 {
        fill: #000;
        stroke-width: 0px;
      }

      .cls-2 {
        stroke-miterlimit: 10;
        stroke-width: .5px;
      }
    </style>
  </defs>
  <path class="cls-1" d="M214.2,228.8l52-97.9c4.7-8.9,17.4-8.7,21.8.3l100.2,205.6c4,8.1-2,17.6-11,17.6H54.5c-16.9,0-30.6-13.7-30.6-30.6l-.5-258.9c0-16.9,13.7-30.7,30.6-30.7h336.6c16.9,0,30.6,13.7,30.6,30.6v397.9c0,16.9-13.7,30.6-30.6,30.6H54c-16.9,0-30.6-13.7-30.6-30.6v-77.8"/>
  <path class="cls-1" d="M96.7,281.4l.3-.5c-27.5-15.9-46-45.6-46-79.6,0-50.7,41.1-91.8,91.8-91.8s61.7,17.3,77.9,43.2"/>
  <g>
    <path class="cls-3" d="M103.9,453.2v8.5h-52v-78.9h9v70.4h43.1Z"/>
    <path class="cls-3" d="M151.4,382.8h9v78.9h-9v-78.9Z"/>
    <path class="cls-3" d="M286.9,382.8l-34.8,78.9h-9.8l-34.8-78.9h9.8l30,67.9,29.9-67.9h9.8Z"/>
    <path class="cls-3" d="M343.2,391.3v26h42.8v8.5h-42.8v27.5h47.6v8.5h-56.6v-78.9h56.6v8.5h-47.6Z"/>
  </g>
  <path class="cls-3" d="M242,282.3c0-2.5-2-4.5-4.5-4.5s-1.1.1-1.6.3h-5.4c-4.9.1-9-3.6-9.3-8.5-.2-4.8,3.6-8.9,8.5-9,0,0,.2,0,.3,0h0c.3,0,.7.1,1,.1,2.5,0,4.5-2,4.5-4.5s-2-4.5-4.5-4.5-.7,0-1,.1h0c-11.6,0-22.2,6.5-27.4,16.9-6.6,13.1-24.8,11.7-25.1.9-.2-4.7,3.4-8.7,8.1-9,.2,0,.4,0,.7,0,2.5,0,4.5-2,4.5-4.5s-2-4.5-4.5-4.5-.7,0-1,.1c-11.2.4-21.3,6.8-26.4,16.9-6.6,13.2-24.8,11.5-25.1.9-.2-4.7,3.4-8.6,8-9,.2,0,.4,0,.6,0,2.5,0,4.5-2,4.5-4.5s-2-4.5-4.5-4.5-.7,0-1.1.1c-10.9.5-20.8,6.6-25.9,16.4-3.3,6.1-9.7,9.9-16.6,9.9v3.6c-6.4-4.2-23-15.1-22.3-13.8.9,1.7,7.7,8.5,11.1,12s11.2,6.9,11.2,6.9c18.2,0,24.2-14.8,26.3-17.5.2,9.8,8.3,17.6,18.1,17.5,18.2,0,22.6-13.4,25.7-17.5.2,9.8,8.3,17.6,18.1,17.5,18.2,0,22.6-13.4,25.7-17.5.2,9.8,8.3,17.6,18.1,17.5h8.2v-.3c1.9-.5,3.3-2.2,3.3-4.3Z"/>
  <g>
    <g>
      <path class="cls-3" d="M21.8,522.4h2.3v8.9h5.4v2h-7.6v-10.9Z"/>
      <path class="cls-3" d="M38.5,528.5h-5.3v2.8h6v2h-8.2v-10.9h8v1.9h-5.7v2.3h5.3v1.9Z"/>
      <path class="cls-3" d="M47.4,531h-4l-.8,2.2h-2.4l3.9-10.9h2.6l3.8,10.9h-2.5l-.7-2.2ZM46.8,529.1l-1.4-4.3-1.4,4.3h2.8Z"/>
      <path class="cls-3" d="M56.5,528.9h-2.3v4.3h-2.2v-10.9h5.3c.8,0,1.3.1,1.8.3.4.2.8.4,1,.8.2.3.4.6.6.9.1.3.2.7.2,1.1s-.1,1-.4,1.5c-.3.5-.7.9-1.3,1.1.5.2.9.5,1.1.9.2.4.3.9.3,1.7v.7c0,.5,0,.8,0,1,0,.3.2.5.4.6v.3h-2.5c0-.2-.1-.4-.1-.6,0-.3,0-.6,0-.9v-1c0-.7-.2-1.2-.4-1.4-.2-.2-.7-.3-1.4-.3ZM57.9,527c.5-.2.7-.6.7-1.2s-.2-1.1-.7-1.3c-.2-.1-.6-.2-1.1-.2h-2.6v2.9h2.6c.5,0,.9,0,1.1-.2Z"/>
      <path class="cls-3" d="M71.6,533.2h-2.3l-4.4-7.7v7.7h-2.1v-10.9h2.4l4.3,7.6v-7.6h2.1v10.9Z"/>
      <path class="cls-3" d="M73.5,522.4h2.3v10.9h-2.3v-10.9Z"/>
      <path class="cls-3" d="M86.7,533.2h-2.3l-4.4-7.7v7.7h-2.1v-10.9h2.4l4.3,7.6v-7.6h2.1v10.9Z"/>
      <path class="cls-3" d="M95.4,532.9c-.6.4-1.3.6-2.2.6-1.4,0-2.6-.5-3.5-1.5-1-1-1.4-2.4-1.4-4.1s.5-3.2,1.5-4.2c1-1.1,2.2-1.6,3.8-1.6s2.5.4,3.3,1c.8.7,1.3,1.6,1.4,2.6h-2.2c-.2-.7-.6-1.3-1.3-1.6-.4-.2-.8-.2-1.2-.2-.9,0-1.6.3-2.2,1-.6.7-.8,1.7-.8,3s.3,2.3.9,2.8c.6.6,1.3.8,2.1.8s1.4-.2,1.9-.7.8-1,.9-1.7h-2.5v-1.8h4.5v5.8h-1.5l-.2-1.4c-.4.5-.8.9-1.2,1.1Z"/>
      <path class="cls-3" d="M117.1,522.4h2.3v10.9h-2.3v-10.9Z"/>
      <path class="cls-3" d="M130.2,533.2h-2.3l-4.4-7.7v7.7h-2.1v-10.9h2.4l4.3,7.6v-7.6h2.1v10.9Z"/>
      <path class="cls-3" d="M140.2,522.4v1.9h-3.2v8.9h-2.3v-8.9h-3.3v-1.9h8.8Z"/>
      <path class="cls-3" d="M149.1,528.5h-5.3v2.8h6v2h-8.2v-10.9h8v1.9h-5.7v2.3h5.3v1.9Z"/>
      <path class="cls-3" d="M151.6,522.4h2.3v8.9h5.4v2h-7.6v-10.9Z"/>
      <path class="cls-3" d="M160.8,522.4h2.3v8.9h5.4v2h-7.6v-10.9Z"/>
      <path class="cls-3" d="M169.8,522.4h2.3v10.9h-2.3v-10.9Z"/>
      <path class="cls-3" d="M180.9,532.9c-.6.4-1.3.6-2.2.6-1.4,0-2.6-.5-3.5-1.5-1-1-1.4-2.4-1.4-4.1s.5-3.2,1.5-4.2c1-1.1,2.2-1.6,3.8-1.6s2.5.4,3.3,1,1.3,1.6,1.4,2.6h-2.2c-.2-.7-.6-1.3-1.3-1.6-.4-.2-.8-.2-1.2-.2-.9,0-1.6.3-2.2,1-.6.7-.8,1.7-.8,3s.3,2.3.9,2.8c.6.6,1.3.8,2.1.8s1.4-.2,1.9-.7.8-1,.9-1.7h-2.5v-1.8h4.5v5.8h-1.5l-.2-1.4c-.4.5-.8.9-1.2,1.1Z"/>
      <path class="cls-3" d="M193.5,528.5h-5.3v2.8h6v2h-8.2v-10.9h8v1.9h-5.7v2.3h5.3v1.9Z"/>
      <path class="cls-3" d="M204.8,533.2h-2.3l-4.4-7.7v7.7h-2.1v-10.9h2.4l4.3,7.6v-7.6h2.1v10.9Z"/>
      <path class="cls-3" d="M214.5,532.4c-.8.7-1.8,1.1-3.1,1.1s-2.8-.5-3.7-1.5c-.9-1-1.3-2.4-1.3-4.1s.5-3.4,1.5-4.4c.9-.9,2-1.3,3.4-1.3s3.2.6,4,1.8c.5.7.7,1.3.8,2h-2.3c-.1-.5-.3-.9-.6-1.2-.4-.5-1-.7-1.8-.7s-1.5.3-2,1c-.5.7-.7,1.6-.7,2.8s.3,2.1.8,2.7c.5.6,1.1.9,1.9.9s1.4-.3,1.8-.8c.2-.3.4-.7.6-1.3h2.2c-.2,1.2-.7,2.1-1.5,2.9Z"/>
      <path class="cls-3" d="M225.3,528.5h-5.3v2.8h6v2h-8.2v-10.9h8v1.9h-5.7v2.3h5.3v1.9Z"/>
      <path class="cls-3" d="M243.8,522.4h2.4l2.4,8.2,2.4-8.2h2.4l-3.7,10.9h-2.1l-3.7-10.9Z"/>
      <path class="cls-3" d="M254.5,522.4h2.3v10.9h-2.3v-10.9Z"/>
      <path class="cls-3" d="M262.8,531.6c.5,0,1,0,1.3-.2.6-.2.9-.6.9-1.3s-.2-.6-.5-.8c-.3-.2-.8-.4-1.5-.5l-1.1-.3c-1.1-.3-1.9-.5-2.3-.8-.7-.5-1.1-1.3-1.1-2.3s.4-1.8,1.1-2.4,1.7-1,3.1-1,2.1.3,2.9.9,1.2,1.5,1.3,2.6h-2.2c0-.7-.3-1.1-.9-1.4-.4-.2-.8-.3-1.3-.3s-1.1.1-1.4.4c-.3.2-.5.6-.5,1s.2.7.5.9c.2.1.7.3,1.4.4l1.9.4c.8.2,1.4.5,1.9.8.6.5,1,1.2,1,2.2s-.4,1.8-1.1,2.5c-.8.7-1.8,1-3.2,1s-2.5-.3-3.3-1c-.8-.6-1.2-1.5-1.2-2.7h2.2c0,.5.2.9.4,1.1.4.4,1,.7,1.9.7Z"/>
      <path class="cls-3" d="M268.7,522.4h2.3v10.9h-2.3v-10.9Z"/>
      <path class="cls-3" d="M277.9,533.5c-1.6,0-2.7-.4-3.6-1.3-1.1-1-1.6-2.5-1.6-4.5s.5-3.5,1.6-4.5c.8-.8,2-1.3,3.6-1.3s2.7.4,3.6,1.3c1.1,1,1.6,2.5,1.6,4.5s-.5,3.4-1.6,4.5c-.8.8-2,1.3-3.6,1.3ZM280,530.6c.5-.7.8-1.6.8-2.8s-.3-2.2-.8-2.8c-.5-.7-1.2-1-2.1-1s-1.6.3-2.1,1c-.5.7-.8,1.6-.8,2.8s.3,2.2.8,2.8,1.3,1,2.1,1,1.6-.3,2.1-1Z"/>
      <path class="cls-3" d="M293.6,533.2h-2.3l-4.4-7.7v7.7h-2.1v-10.9h2.4l4.3,7.6v-7.6h2.1v10.9Z"/>
      <path class="cls-3" d="M320,528.5h-5.3v2.8h6v2h-8.2v-10.9h8v1.9h-5.7v2.3h5.3v1.9Z"/>
      <path class="cls-3" d="M324.6,533.2h-2.1v-10.9h3.3l2,8.5,2-8.5h3.3v10.9h-2.1v-7.3c0-.2,0-.5,0-.9,0-.4,0-.7,0-.9l-2.1,9.1h-2.2l-2-9.1c0,.2,0,.5,0,.9,0,.4,0,.7,0,.9v7.3Z"/>
      <path class="cls-3" d="M340,533.2h-4.9v-10.9h5.3c1.3,0,2.3.4,2.8,1.2.3.5.5,1,.5,1.7s-.2,1.2-.5,1.6c-.2.2-.5.4-.8.6.6.2,1,.5,1.3,1,.3.4.4,1,.4,1.6s-.2,1.2-.5,1.7c-.2.3-.5.6-.8.9-.3.3-.8.4-1.2.5s-1,.1-1.5.1ZM341.1,526.4c.3-.2.4-.5.4-.9s-.2-.8-.6-1c-.3-.1-.8-.2-1.3-.2h-2.4v2.4h2.7c.5,0,.9,0,1.2-.3ZM340,528.4h-2.7v2.9h2.7c.5,0,.8,0,1.1-.2.5-.2.7-.7.7-1.4s-.2-1-.7-1.2c-.3-.1-.6-.2-1.1-.2Z"/>
      <path class="cls-3" d="M350.7,533.5c-1.6,0-2.7-.4-3.6-1.3-1.1-1-1.6-2.5-1.6-4.5s.5-3.5,1.6-4.5c.8-.8,2-1.3,3.6-1.3s2.7.4,3.6,1.3c1.1,1,1.6,2.5,1.6,4.5s-.5,3.4-1.6,4.5c-.8.8-2,1.3-3.6,1.3ZM352.9,530.6c.5-.7.8-1.6.8-2.8s-.3-2.2-.8-2.8c-.5-.7-1.2-1-2.1-1s-1.6.3-2.1,1c-.5.7-.8,1.6-.8,2.8s.3,2.2.8,2.8,1.3,1,2.1,1,1.6-.3,2.1-1Z"/>
      <path class="cls-3" d="M362.4,533.2h-4.7v-10.9h4.7c.7,0,1.2,0,1.7.2.8.3,1.4.7,1.8,1.4.4.5.6,1.1.8,1.8.1.6.2,1.2.2,1.8,0,1.4-.3,2.7-.9,3.7-.8,1.4-2,2-3.6,2ZM364,525.1c-.3-.6-1-.9-2.1-.9h-2.1v7.1h2.1c1.1,0,1.8-.5,2.2-1.6.2-.6.3-1.3.3-2.1s-.2-2-.5-2.5Z"/>
      <path class="cls-3" d="M368.4,522.4h2.3v10.9h-2.3v-10.9Z"/>
      <path class="cls-3" d="M380.3,528.5h-5.3v2.8h6v2h-8.2v-10.9h8v1.9h-5.7v2.3h5.3v1.9Z"/>
      <path class="cls-3" d="M384.9,533.2h-2.1v-10.9h3.3l2,8.5,2-8.5h3.3v10.9h-2.1v-7.3c0-.2,0-.5,0-.9,0-.4,0-.7,0-.9l-2.1,9.1h-2.2l-2-9.1c0,.2,0,.5,0,.9,0,.4,0,.7,0,.9v7.3Z"/>
      <path class="cls-3" d="M402.9,528.5h-5.3v2.8h6v2h-8.2v-10.9h8v1.9h-5.7v2.3h5.3v1.9Z"/>
      <path class="cls-3" d="M414.2,533.2h-2.3l-4.4-7.7v7.7h-2.1v-10.9h2.4l4.3,7.6v-7.6h2.1v10.9Z"/>
      <path class="cls-3" d="M424.2,522.4v1.9h-3.2v8.9h-2.3v-8.9h-3.3v-1.9h8.8Z"/>
    </g>
    <line class="cls-2" x1="108.3" y1="522.1" x2="108.3" y2="533.8"/>
    <line class="cls-2" x1="235.9" y1="522.1" x2="235.9" y2="533.8"/>
    <line class="cls-2" x1="303.8" y1="522.1" x2="303.8" y2="533.8"/>
  </g>
</svg>